<?xml version="1.0" encoding="UTF-8"?>
<svg id="Capa_1" xmlns="http://www.w3.org/2000/svg" version="1.1" viewBox="0 0 595.28 841.89">
  <!-- Generator: Adobe Illustrator 29.3.0, SVG Export Plug-In . SVG Version: 2.1.0 Build 146)  -->
  <defs>
    <style>
      .st0 {
        fill: #df6410;
      }

      .st1 {
        fill: #1d1d1b;
      }

      .st2 {
        fill: #ffed00;
      }

      .st3 {
        fill: #efe403;
      }

      .st4 {
        fill: #ea6a08;
      }

      .st5 {
        fill: #d65c1b;
      }

      .st6 {
        fill: #95621a;
      }
    </style>
  </defs>
  <g>
    <path class="st0" d="M212.75,406.36c-65.03,4.85-116.9,1.49-115.85-7.49,1.05-8.99,54.61-20.2,119.64-25.05,65.03-4.85,116.9-1.49,115.85,7.49-1.05,8.99-54.61,20.2-119.64,25.05Z"/>
    <g>
      <line class="st3" x1="259.11" y1="392.99" x2="210.89" y2="400.12"/>
      <rect class="st2" x="210.63" y="395.71" width="48.74" height="1.69" transform="translate(-55.48 38.64) rotate(-8.41)"/>
    </g>
    <g>
      <line class="st3" x1="243.66" y1="378.9" x2="195.44" y2="386.03"/>
      <rect class="st2" x="195.18" y="381.62" width="48.74" height="1.69" transform="translate(-53.58 36.23) rotate(-8.41)"/>
    </g>
    <g>
      <line class="st3" x1="228.14" y1="396.3" x2="216.95" y2="373.21"/>
      <rect class="st2" x="221.7" y="371.92" width="1.69" height="25.66" transform="translate(-145.49 135.53) rotate(-25.85)"/>
    </g>
    <g>
      <line class="st3" x1="251.32" y1="380.42" x2="194.24" y2="388.77"/>
      <rect class="st2" x="193.94" y="383.75" width="57.69" height="1.69" transform="translate(-53.26 36.25) rotate(-8.31)"/>
    </g>
    <g>
      <line class="st3" x1="229.37" y1="401.59" x2="221.43" y2="382.19"/>
      <g>
        <path class="st5" d="M219.57,401.33c-.07,0-.15-.04-.18-.12l-4.81-11.76c-.04-.1,0-.21.1-.25.1-.04.21,0,.25.1l4.81,11.76c.04.1,0,.21-.1.25-.02,0-.05.01-.07.01Z"/>
        <g>
          <path class="st6" d="M224.5,403.76c-.15,0-.29-.09-.35-.24l-7.8-19.05c-.08-.19.01-.42.21-.5.19-.08.42.01.5.21l7.8,19.05c.08.19-.01.42-.21.5-.05.02-.1.03-.14.03Z"/>
          <path class="st6" d="M215.65,384.76c-.04-.1.4-.38.98-.62s1.09-.35,1.13-.25c.04.1-.4.38-.98.62-.58.24-1.09.35-1.13.25Z"/>
          <path class="st6" d="M223.44,403.8c.04.1.55-.01,1.13-.25.58-.24,1.03-.52.98-.62-.04-.1-.55.01-1.13.25-.58.24-1.03.52-.98.62Z"/>
        </g>
        <g>
          <path class="st5" d="M218.86,403.97l-.4-.65.58-.35c2.2-1.34,5.11-2.65,8.09-3.8-.72-.22-.95-.55-1.02-.69l-4.82-11.78c-.06-.16-.13-.56.24-1.22-2.93,1.28-5.93,2.38-8.44,2.96l-.66.15-.17-.74.66-.15c3-.7,6.42-2.03,9.6-3.48,1.2-1.2,3.49-2.84,7.78-4.96,3.37-1.67,3.56-1.52,3.78-1.35l.19.15-.04.28c-.15.69-5.38,3.81-11.22,6.48-1.07,1.09-1,1.63-1,1.64l4.8,11.72s0,0,0,0c0,0,.34.41,1.82.43,6.05-2.2,11.97-3.63,12.56-3.25l.2.13v.28c-.05.27-.08.51-3.65,1.69-4.55,1.5-7.33,1.9-9.03,1.92-3.29,1.19-6.66,2.64-9.29,4.25l-.58.35ZM238.19,396.5c-1.58.37-3.71.96-6.05,1.7,1.4-.29,3.16-.75,5.37-1.48.25-.08.47-.16.68-.23ZM231.29,379.63c-.2.1-.41.2-.64.31-2.08,1.03-3.66,1.93-4.86,2.71,2.19-1.11,4.12-2.18,5.5-3.02Z"/>
          <path class="st5" d="M209.7,388.84c.87-.05,1.78,0,2.06.22l.94-.91,2.45-1.26c-1.64.66-3.82,1.43-5.45,1.96Z"/>
          <path class="st5" d="M216.34,405.07c.66-.58,1.27-1.25,1.32-1.6h1.31s2.63-.82,2.63-.82c-1.63.68-3.73,1.66-5.26,2.42Z"/>
        </g>
      </g>
    </g>
    <path class="st2" d="M298.84,383.69c-6.99.85-14,1.54-21,2.18l-10.52.9c-3.5.31-7.02.51-10.53.77l-10.54.58c-3.52.18-7.03.38-10.54.63-7.02.45-14.03,1.11-21.04,1.79-7,.7-14.01,1.36-21.02,1.95-7.01.6-14.02,1.21-21.04,1.73-14.04,1-28.09,1.88-42.16,2.43v-.17c13.98-1.62,27.99-2.89,42.02-4.06,7.01-.56,14.04-1.03,21.06-1.52,7.02-.49,14.05-.91,21.07-1.29,7.03-.4,14.05-.83,21.06-1.45,3.51-.28,7.01-.62,10.51-.99l10.51-1.04c3.51-.28,7.01-.62,10.52-.85l10.53-.72c7.02-.43,14.05-.83,21.09-1.06v.17Z"/>
  </g>
  <path d="M242.72,308.46s.1.15.2.17c1.1.19,1.81.15,2.74.84,1.6,1.19,1.36,2.44,3.79,2.9,2.68.51,5.73.52,8.44,1.03,1.36.72.72,1.8.27,2.88-.91,2.16-2.65,4.45-5.36,4.5-2.05.04-6-.96-7.74-.19-.63.28-1.54,1.17-1.38,1.87.26,1.14,1.61.72,2.49,1.07.33.13.48.37.84.5,1.99.74,4.81,1.04,5.77,3.01.17.34.73,1.8.76,2.09.03.4-.76,1.23-1.26,1.06-.8-.27-.19-2.1-.37-2.71-.23.11-.17.39-.39.62-.69.7-2.87,1.6-3.85,1.27-.88-.3-2.18-1.28-3.13-1.66s-3.68-1.14-4.62-.92c-1.27.3-1.53,1.04-1.87,2.05-2.42,7.27-4.52,14.7-5.42,22.24.8,5.67.75,11.64,1.52,17.28.22,1.61.62,3.05,1.25,4.54.32.76,1.7,3.63,2.17,4.12.24.25,1.73.6,2.26.88,1.37.73,3.11,3.03,1.13,4.05-.71.37-3.87.84-4.67.75-.28-.03-.83-.33-.98-.28-.11.04-.3.38-.48.51-.77.57-3.85,1.01-4.91,1.01-1.35,0-2.45-1.9-2.95-2.9-1.03-2.09-2.91-5.85-3.57-7.95-.68-2.15-.78-4.59-1.15-6.79-.47-2.77-1.01-5.53-1.45-8.3-1.99-.08-4-.15-5.97-.35-2.99-.29-6.31-.72-9.3-1.34-1.66-.35-3.15-.89-4.85-1.13.74,1.74-.06,2.33-1.95,2.28-1.08,2.92-2.22,5.86-3.79,8.61-.8,1.39-2.11,3.47-3.11,4.72-.82,1.03-3.49,2.68-2.94,3.97,1.83,2.26,3.11,5.62,5.65,7.28,1.19.78,3.34,1.06,3.64,2.62.15.77-.36,1.68-1.19,1.91-.37.1-1.95.28-2.39.31-2.2.14-3.06-2.64-4.07-4-2.05-2.76-4.61-5.44-6.62-8.25-.34-.79.35-2.1.31-2.87-.01-.21-.03-.22-.24-.15l-6.88,4.91c-.5,2.49-.99,5-1.38,7.5-.15.96-.64,3.11-.52,3.94.27,1.76,3.16,2.41,2.2,4.7-.38.89-2.66,1.2-3.63,1.3-1.18.12-1.99-.9-2.41-1.81-.8-1.74.1-8.19.24-10.48.06-1.01.11-6.33.4-6.76.22-.33,1.01-.93,1.34-1.34,4.61-5.88,4.3-12.79,3.88-19.52-.18-2.97-.1-5.98.8-8.87-.85-.02-1.81.12-2.64.08-4.71-.23-9.24-1.13-13.31-3.48-3.72-2.15-6.39-5.94-8.23-9.59l3.93,4.59c7.54,7.05,18.05,5.55,27.55,2.69,1.77-.53,4.35-1.34,6.29-1.47.28-.02.18.22.46.21,3.19-.23,7.69-1.01,10.94-1.54s4.86-1.06,7.78-2.28c2.39-1,5.13-1.8,7.72-2.05,3.42-3.59,5.68-8.02,8.37-12.1-.34-1.47-1.43-2.37-1.14-4.04.32-1.88,2.72-2.5,4.02-3.68.98-.89,1.2-1.83,2.62-2.49,2.52-1.18,7.61-1.9,10.37-1.51Z"/>
  <g>
    <g>
      <path class="st1" d="M158.79,403.94c-4.4-.83-8.35.05-11.73,2.6-3.31,2.5-5.54,6.67-6.61,12.4l-18.54,98.74c-1.08,5.73-.5,10.44,1.7,14.01,2.25,3.64,5.59,5.9,9.94,6.71,4.51.85,8.52-.01,11.93-2.55,3.35-2.49,5.6-6.7,6.68-12.49l18.54-98.74c1.09-5.8.51-10.52-1.71-14.03-2.26-3.57-5.69-5.81-10.19-6.65ZM147.3,522.45c-.85,4.53-2.46,7.71-4.78,9.43-2.29,1.7-4.93,2.25-8.06,1.66-2.96-.56-5.13-2.01-6.64-4.45-1.54-2.48-1.89-6.01-1.05-10.49l18.54-98.74c.84-4.48,2.43-7.63,4.73-9.36,2.26-1.7,4.82-2.26,7.84-1.69,3.14.59,5.41,2.04,6.93,4.44,1.53,2.42,1.88,5.94,1.03,10.47l-18.54,98.74Z"/>
      <path class="st4" d="M136.85,541.2c-1.22,0-2.47-.12-3.76-.36-5.06-.95-8.95-3.59-11.59-7.84-2.54-4.11-3.22-9.41-2.03-15.76l18.54-98.74c1.19-6.35,3.73-11.04,7.55-13.92,3.97-2.99,8.57-4.02,13.68-3.06,5.2.98,9.18,3.59,11.83,7.76,2.57,4.06,3.27,9.38,2.06,15.81l-18.54,98.74c-1.21,6.42-3.78,11.14-7.64,14.02-3,2.24-6.39,3.36-10.11,3.36ZM134.26,536.02c3.58.62,6.65,0,9.37-1.89-2.69,1.86-5.83,2.49-9.37,1.89ZM123.89,524.17c.15,2.42.76,4.5,1.82,6.22,1.85,2.99,4.47,4.8,8.02,5.53-3.5-.72-6.19-2.58-8.01-5.53-1.07-1.72-1.68-3.8-1.82-6.22ZM155.69,411.06c-1.56,0-2.91.46-4.16,1.4-1.77,1.33-3.07,4.04-3.79,7.84l-18.54,98.74c-.71,3.8-.46,6.82.72,8.73,1.14,1.84,2.72,2.9,4.99,3.32,2.45.46,4.4.08,6.13-1.21,1.78-1.33,3.1-4.06,3.82-7.91l18.54-98.74c.72-3.84.48-6.84-.69-8.69-1.15-1.81-2.83-2.87-5.29-3.33-.61-.11-1.18-.17-1.73-.17ZM123.89,524.16h0s0,0,0,0ZM167.31,412.63c1.41,2.67,1.79,6.17,1.15,10.42.65-4.25.26-7.75-1.15-10.42ZM155.64,406.11c-2.61,0-4.95.8-7.09,2.41-2.33,1.76-4.05,4.59-5.11,8.43,1.06-3.84,2.78-6.67,5.11-8.43,2.75-2.08,5.97-2.81,9.58-2.18-.86-.15-1.69-.23-2.49-.23ZM158.56,406.41c3.48.7,6.18,2.39,8.02,5.03-1.86-2.67-4.49-4.32-8.02-5.03Z"/>
    </g>
    <g>
      <path class="st1" d="M173.58,537.93h102.28l-51.61-113.52-50.67,113.52ZM259.83,528.03h-70.32l34.84-78.05,35.48,78.05Z"/>
      <path class="st4" d="M283.66,542.95h-117.82l58.37-130.78,59.45,130.78ZM267.56,532.91h.49l-43.76-96.27-42.97,96.27h.51l42.48-95.15,43.26,95.15ZM197.25,523.01h54.78l-27.64-60.79-27.14,60.79Z"/>
    </g>
    <g>
      <path class="st1" d="M153.87,370.03c-.25,2.21.39,4.31,1.89,6.24,1.64,2.1,3.56,3.29,5.7,3.53,2.06.23,3.93-.3,5.56-1.57,1.59-1.24,2.52-2.91,2.77-4.98.26-2.13-.43-4.26-2.04-6.33s-3.6-3.32-5.74-3.51c-4.17-.38-7.66,2.41-8.14,6.63Z"/>
      <path class="st4" d="M162.4,381.24c-.36,0-.72-.02-1.09-.06-2.53-.28-4.76-1.65-6.64-4.05-1.74-2.22-2.47-4.66-2.18-7.25h0c.55-4.94,4.7-8.32,9.65-7.87,2.54.23,4.8,1.59,6.71,4.05,1.85,2.37,2.63,4.84,2.33,7.35-.3,2.45-1.41,4.44-3.3,5.92-1.63,1.27-3.47,1.92-5.48,1.92ZM155.26,370.19c-.21,1.84.33,3.59,1.61,5.22,1.4,1.79,3,2.8,4.75,3,1.71.19,3.2-.23,4.55-1.28,1.3-1.02,2.03-2.34,2.24-4.05.21-1.75-.38-3.54-1.76-5.3-1.42-1.82-3.03-2.83-4.77-2.98-3.44-.32-6.24,1.96-6.62,5.4h0Z"/>
    </g>
  </g>
  <g>
    <path class="st1" d="M313.8,524.24c0,5.64-1.57,9.93-4.72,12.87s-7.78,4.41-13.89,4.41c-1.31,0-2.75-.1-4.32-.31-1.57-.21-2.78-.43-3.61-.67v-2.14c1.37.3,2.75.55,4.14.76,1.39.21,2.66.31,3.79.31,10.98,0,16.48-5.02,16.48-15.05v-4.01c-3.62,1.54-7.39,2.32-11.31,2.32-4.16,0-7.79-.85-10.91-2.54-3.12-1.69-5.52-4.05-7.21-7.08s-2.54-6.59-2.54-10.69,1.02-7.91,3.07-11.09c2.05-3.18,4.93-5.66,8.64-7.44,3.71-1.78,8.03-2.67,12.96-2.67,1.72,0,3.37.09,4.94.27,1.57.18,3.07.42,4.5.71v42.04ZM300.35,520.76c4.1,0,7.87-.8,11.31-2.41v-34.56c-1.72-.3-3.06-.47-4.01-.53-.95-.06-2.05-.09-3.3-.09-4.45,0-8.37.79-11.76,2.36s-6.03,3.8-7.93,6.68c-1.9,2.88-2.85,6.28-2.85,10.2,0,5.58,1.69,10.04,5.08,13.36,3.38,3.33,7.87,4.99,13.45,4.99Z"/>
    <path class="st1" d="M326.62,467.59c-.53-.53-.8-1.19-.8-1.96,0-.83.27-1.5.8-2,.53-.5,1.19-.76,1.96-.76.83,0,1.5.25,2,.76.5.51.76,1.17.76,2,0,.77-.25,1.42-.76,1.96-.51.53-1.17.8-2,.8-.77,0-1.42-.27-1.96-.8ZM327.52,481.93h2.14v40.08h-2.14v-40.08Z"/>
    <path class="st1" d="M343.37,457.88h2.14v64.13h-2.14v-64.13Z"/>
    <path class="st1" d="M358.33,467.59c-.53-.53-.8-1.19-.8-1.96,0-.83.27-1.5.8-2,.53-.5,1.19-.76,1.96-.76.83,0,1.5.25,2,.76.5.51.76,1.17.76,2,0,.77-.25,1.42-.76,1.96-.51.53-1.17.8-2,.8-.77,0-1.42-.27-1.96-.8ZM359.22,481.93h2.14v40.08h-2.14v-40.08Z"/>
    <path class="st1" d="M395.21,483.8h-23.43v-1.87h26.72v.36l-23.16,37.86h23.87v1.87h-27.17v-.36l23.16-37.85Z"/>
    <path class="st1" d="M434.4,521.03c-2.02.59-4.02,1.05-6.01,1.38-1.99.33-4.02.49-6.1.49-4.99,0-8.94-.99-11.85-2.98-2.91-1.99-4.36-4.71-4.36-8.15s1.39-6.07,4.19-8.06c2.79-1.99,7.42-3.58,13.9-4.77l8.11-1.42v-.53c0-4.87-1.08-8.45-3.25-10.73-2.17-2.29-5.57-3.43-10.2-3.43-1.19,0-2.45.1-3.79.31-1.34.21-2.6.55-3.79,1.02v-2.05c1.01-.42,2.2-.73,3.56-.94,1.37-.21,2.7-.31,4.01-.31,10.39,0,15.59,5.23,15.59,15.68v24.49ZM424.69,500.72c-6,1.13-10.24,2.53-12.74,4.19-2.49,1.66-3.74,3.92-3.74,6.77s1.25,5.18,3.74,6.81c2.49,1.63,5.94,2.45,10.33,2.45,3.03,0,6.35-.42,9.98-1.25v-20.4l-7.57,1.42Z"/>
    <path class="st1" d="M452.65,522.01h-2.14v-38.21h-8.02v-1.87h8.02v-11.85l1.96-1.07h.18v12.92h9v1.87h-9v38.21Z"/>
    <path class="st1" d="M489.8,522.9c-4.57,0-8.57-.9-11.98-2.72-3.42-1.81-6.06-4.35-7.93-7.62-1.87-3.26-2.81-7.07-2.81-11.4,0-4.04.8-7.57,2.41-10.6,1.6-3.03,3.83-5.4,6.68-7.13,2.85-1.72,6.15-2.58,9.89-2.58,3.15,0,5.95.7,8.42,2.09,2.46,1.4,4.41,3.3,5.83,5.7,1.43,2.4,2.14,5.18,2.14,8.33,0,.59-.03.98-.09,1.16l-33.22,4.54c.3,5.58,2.33,10.02,6.1,13.32,3.77,3.3,8.71,4.94,14.83,4.94,1.37,0,2.91-.12,4.63-.36,1.72-.24,3.15-.54,4.28-.89v1.87c-.89.36-2.26.67-4.1.94-1.84.27-3.53.4-5.08.4ZM486.05,482.82c-5.05,0-9.1,1.6-12.16,4.81-3.06,3.21-4.65,7.63-4.76,13.27l31.35-4.28c-.24-4.28-1.65-7.64-4.23-10.11-2.58-2.46-5.98-3.7-10.2-3.7Z"/>
  </g>
</svg>